<svg viewBox="0 0 168 40" version="1.1" xmlns="http://www.w3.org/2000/svg" xmlns:xlink="http://www.w3.org/1999/xlink">
    <g stroke="none" stroke-width="1" fill="none" fill-rule="evenodd">
        <g transform="translate(10.000000, 11.000000)" fill="#FFFFFF" fill-rule="nonzero">
            <path d="M6,4 L16,14 L26,4 L32,4 L16,20 L0,4 L6,4 Z" ></path>
            <polygon points="16 10 6 2.32964831e-15 26 0"></polygon>
        </g>
        <path d="M52,28.0950174 L52,13.5434531 L54.2595597,13.5434531 L54.2595597,15.8933951 C55.4345307,14.3568946 57.1216686,13.2421784 59.1100811,13.2421784 L59.1100811,15.561993 C58.838934,15.5017381 58.5677868,15.4716107 58.2062572,15.4716107 C56.820394,15.4716107 54.9223638,16.6164542 54.2595597,17.7914253 L54.2595597,28.0950174 L52,28.0950174 Z M71.7636153,28.0950174 L71.7636153,26.0463499 C70.6488992,27.3117034 68.7508691,28.4565469 66.5816918,28.4565469 C63.5388181,28.4565469 61.9420626,26.9803013 61.9420626,23.8169177 L61.9420626,13.5434531 L64.2016222,13.5434531 L64.2016222,23.1239861 C64.2016222,25.6848204 65.4971031,26.438007 67.4553882,26.438007 C69.2329085,26.438007 70.9200463,25.4136732 71.7636153,24.2387022 L71.7636153,13.5434531 L74.023175,13.5434531 L74.023175,28.0950174 L71.7636153,28.0950174 Z M78.5422943,28.0950174 L78.5422943,8 L80.801854,8 L80.801854,15.7427578 C81.976825,14.1460023 83.7242178,13.1819235 85.7126304,13.1819235 C89.5086906,13.1819235 92.1900348,16.1946698 92.1900348,20.834299 C92.1900348,25.5643105 89.5086906,28.4565469 85.7126304,28.4565469 C83.6639629,28.4565469 81.8864426,27.4020857 80.801854,25.9258401 L80.801854,28.0950174 L78.5422943,28.0950174 Z M80.801854,24.1483198 C81.585168,25.4136732 83.3626883,26.438007 85.1402086,26.438007 C88.0926999,26.438007 89.8400927,24.0579374 89.8400927,20.834299 C89.8400927,17.6106605 88.0926999,15.2004635 85.1402086,15.2004635 C83.3626883,15.2004635 81.585168,16.2850521 80.801854,17.5504056 L80.801854,24.1483198 Z M95.4136732,31.7404403 C95.7450753,31.8910776 96.2873696,31.98146 96.6488992,31.98146 C97.6431054,31.98146 98.3059096,31.6500579 98.8180765,30.4449594 L99.7821553,28.2456547 L93.6964079,13.5434531 L96.1367323,13.5434531 L100.987254,25.4739282 L105.807648,13.5434531 L108.2781,13.5434531 L100.987254,31.0475087 C100.113557,33.1564311 98.6373117,33.9698725 96.7091541,34 C96.2271147,34 95.4739282,33.9096176 95.0521437,33.7891078 L95.4136732,31.7404403 Z M127.499421,28.0950174 L127.499421,26.438007 C126.294322,27.7636153 124.637312,28.4565469 122.679027,28.4565469 C120.208575,28.4565469 117.587486,26.7995365 117.587486,23.636153 C117.587486,20.382387 120.208575,18.8458864 122.679027,18.8458864 C124.667439,18.8458864 126.32445,19.4785632 127.499421,20.834299 L127.499421,18.2132097 C127.499421,16.2549247 125.932793,15.1402086 123.82387,15.1402086 C122.076477,15.1402086 120.660487,15.7728853 119.365006,17.1587486 L118.310545,15.5921205 C119.877173,13.9652375 121.745075,13.1819235 124.125145,13.1819235 C127.198146,13.1819235 129.75898,14.5677868 129.75898,18.0926999 L129.75898,28.0950174 L127.499421,28.0950174 Z M127.499421,25.0220162 L127.499421,22.2804171 C126.625724,21.0753187 125.089224,20.4727694 123.492468,20.4727694 C121.383546,20.4727694 119.9073,21.7983778 119.9073,23.6662804 C119.9073,25.5040556 121.383546,26.829664 123.492468,26.829664 C125.089224,26.829664 126.625724,26.2271147 127.499421,25.0220162 Z M136.537659,33.6384705 L134.2781,33.6384705 L134.2781,13.5434531 L136.537659,13.5434531 L136.537659,15.7126304 C137.592121,14.2363847 139.399768,13.1819235 141.448436,13.1819235 C145.274623,13.1819235 147.92584,16.0741599 147.92584,20.8041715 C147.92584,25.5040556 145.274623,28.4565469 141.448436,28.4565469 C139.460023,28.4565469 137.71263,27.5225956 136.537659,25.8957126 L136.537659,33.6384705 Z M145.545771,20.8041715 C145.545771,17.580533 143.798378,15.2004635 140.876014,15.2004635 C139.098494,15.2004635 137.320973,16.2549247 136.537659,17.5202781 L136.537659,24.0880649 C137.320973,25.3534183 139.098494,26.438007 140.876014,26.438007 C143.798378,26.438007 145.545771,24.02781 145.545771,20.8041715 Z M152.685979,11.1031286 C151.872538,11.1031286 151.179606,10.410197 151.179606,9.56662804 C151.179606,8.7230591 151.872538,8.06025492 152.685979,8.06025492 C153.529548,8.06025492 154.22248,8.7230591 154.22248,9.56662804 C154.22248,10.410197 153.529548,11.1031286 152.685979,11.1031286 Z M151.571263,28.0950174 L151.571263,13.5434531 L153.830823,13.5434531 L153.830823,28.0950174 L151.571263,28.0950174 Z" id="ruby-api" fill="#FFFFFF"></path>
    </g>
</svg>
