<svg width="168px" height="40px" viewBox="0 0 168 40" version="1.1" xmlns="http://www.w3.org/2000/svg" xmlns:xlink="http://www.w3.org/1999/xlink">
    <g stroke="none" stroke-width="1" fill="none" fill-rule="evenodd">
        <path d="M16,14 L26,24 L36,14 L42,14 L26,30 L10,14 L16,14 Z" fill="#FFFFFF" fill-rule="nonzero"></path>
        <polygon fill="#FFFFFF" fill-rule="nonzero" points="26 20 16 10 36 10"></polygon>
        <path d="M52.25,24 L52.25,9.51 L54.5,9.51 L54.5,11.85 C55.67,10.32 57.35,9.21 59.33,9.21 L59.33,11.52 C59.06,11.46 58.79,11.43 58.43,11.43 C57.05,11.43 55.16,12.57 54.5,13.74 L54.5,24 L52.25,24 Z M71.93,24 L71.93,21.96 C70.82,23.22 68.93,24.36 66.77,24.36 C63.74,24.36 62.15,22.89 62.15,19.74 L62.15,9.51 L64.4,9.51 L64.4,19.05 C64.4,21.6 65.69,22.35 67.64,22.35 C69.41,22.35 71.09,21.33 71.93,20.16 L71.93,9.51 L74.18,9.51 L74.18,24 L71.93,24 Z M78.68,24 L78.68,3.99 L80.93,3.99 L80.93,11.7 C82.1,10.11 83.84,9.15 85.82,9.15 C89.6,9.15 92.27,12.15 92.27,16.77 C92.27,21.48 89.6,24.36 85.82,24.36 C83.78,24.36 82.01,23.31 80.93,21.84 L80.93,24 L78.68,24 Z M80.93,20.07 C81.71,21.33 83.48,22.35 85.25,22.35 C88.19,22.35 89.93,19.98 89.93,16.77 C89.93,13.56 88.19,11.16 85.25,11.16 C83.48,11.16 81.71,12.24 80.93,13.5 L80.93,20.07 Z M95.48,27.63 C95.81,27.78 96.35,27.87 96.71,27.87 C97.7,27.87 98.36,27.54 98.87,26.34 L99.83,24.15 L93.77,9.51 L96.2,9.51 L101.03,21.39 L105.83,9.51 L108.29,9.51 L101.03,26.94 C100.16,29.04 98.69,29.85 96.77,29.88 C96.29,29.88 95.54,29.79 95.12,29.67 L95.48,27.63 Z M127.43,24 L127.43,22.35 C126.23,23.67 124.58,24.36 122.63,24.36 C120.17,24.36 117.56,22.71 117.56,19.56 C117.56,16.32 120.17,14.79 122.63,14.79 C124.61,14.79 126.26,15.42 127.43,16.77 L127.43,14.16 C127.43,12.21 125.87,11.1 123.77,11.1 C122.03,11.1 120.62,11.73 119.33,13.11 L118.28,11.55 C119.84,9.93 121.7,9.15 124.07,9.15 C127.13,9.15 129.68,10.53 129.68,14.04 L129.68,24 L127.43,24 Z M127.43,20.94 L127.43,18.21 C126.56,17.01 125.03,16.41 123.44,16.41 C121.34,16.41 119.87,17.73 119.87,19.59 C119.87,21.42 121.34,22.74 123.44,22.74 C125.03,22.74 126.56,22.14 127.43,20.94 Z M136.43,29.52 L134.18,29.52 L134.18,9.51 L136.43,9.51 L136.43,11.67 C137.48,10.2 139.28,9.15 141.32,9.15 C145.13,9.15 147.77,12.03 147.77,16.74 C147.77,21.42 145.13,24.36 141.32,24.36 C139.34,24.36 137.6,23.43 136.43,21.81 L136.43,29.52 Z M145.4,16.74 C145.4,13.53 143.66,11.16 140.75,11.16 C138.98,11.16 137.21,12.21 136.43,13.47 L136.43,20.01 C137.21,21.27 138.98,22.35 140.75,22.35 C143.66,22.35 145.4,19.95 145.4,16.74 Z M152.51,7.08 C151.7,7.08 151.01,6.39 151.01,5.55 C151.01,4.71 151.7,4.05 152.51,4.05 C153.35,4.05 154.04,4.71 154.04,5.55 C154.04,6.39 153.35,7.08 152.51,7.08 Z M151.4,24 L151.4,9.51 L153.65,9.51 L153.65,24 L151.4,24 Z" fill="#FFFFFF"></path>
    </g>
</svg>
