<svg viewBox="0 0 168 40" version="1.1" xmlns="http://www.w3.org/2000/svg" xmlns:xlink="http://www.w3.org/1999/xlink">
    <g stroke="none" stroke-width="1" fill="none" fill-rule="evenodd">
        <path d="M16,14 L26,24 L36,14 L42,14 L26,30 L10,14 L16,14 Z" fill="#FFFFFF" fill-rule="nonzero"></path>
        <polygon fill="#FFFFFF" fill-rule="nonzero" points="26 20 16 10 36 10"></polygon>
        <path d="M52.25,26 L52.25,11.51 L54.5,11.51 L54.5,13.85 C55.67,12.32 57.35,11.21 59.33,11.21 L59.33,13.52 C59.06,13.46 58.79,13.43 58.43,13.43 C57.05,13.43 55.16,14.57 54.5,15.74 L54.5,26 L52.25,26 Z M71.93,26 L71.93,23.96 C70.82,25.22 68.93,26.36 66.77,26.36 C63.74,26.36 62.15,24.89 62.15,21.74 L62.15,11.51 L64.4,11.51 L64.4,21.05 C64.4,23.6 65.69,24.35 67.64,24.35 C69.41,24.35 71.09,23.33 71.93,22.16 L71.93,11.51 L74.18,11.51 L74.18,26 L71.93,26 Z M78.68,26 L78.68,5.99 L80.93,5.99 L80.93,13.7 C82.1,12.11 83.84,11.15 85.82,11.15 C89.6,11.15 92.27,14.15 92.27,18.77 C92.27,23.48 89.6,26.36 85.82,26.36 C83.78,26.36 82.01,25.31 80.93,23.84 L80.93,26 L78.68,26 Z M80.93,22.07 C81.71,23.33 83.48,24.35 85.25,24.35 C88.19,24.35 89.93,21.98 89.93,18.77 C89.93,15.56 88.19,13.16 85.25,13.16 C83.48,13.16 81.71,14.24 80.93,15.5 L80.93,22.07 Z M95.48,29.63 C95.81,29.78 96.35,29.87 96.71,29.87 C97.7,29.87 98.36,29.54 98.87,28.34 L99.83,26.15 L93.77,11.51 L96.2,11.51 L101.03,23.39 L105.83,11.51 L108.29,11.51 L101.03,28.94 C100.16,31.04 98.69,31.85 96.77,31.88 C96.29,31.88 95.54,31.79 95.12,31.67 L95.48,29.63 Z M127.43,26 L127.43,24.35 C126.23,25.67 124.58,26.36 122.63,26.36 C120.17,26.36 117.56,24.71 117.56,21.56 C117.56,18.32 120.17,16.79 122.63,16.79 C124.61,16.79 126.26,17.42 127.43,18.77 L127.43,16.16 C127.43,14.21 125.87,13.1 123.77,13.1 C122.03,13.1 120.62,13.73 119.33,15.11 L118.28,13.55 C119.84,11.93 121.7,11.15 124.07,11.15 C127.13,11.15 129.68,12.53 129.68,16.04 L129.68,26 L127.43,26 Z M127.43,22.94 L127.43,20.21 C126.56,19.01 125.03,18.41 123.44,18.41 C121.34,18.41 119.87,19.73 119.87,21.59 C119.87,23.42 121.34,24.74 123.44,24.74 C125.03,24.74 126.56,24.14 127.43,22.94 Z M136.43,31.52 L134.18,31.52 L134.18,11.51 L136.43,11.51 L136.43,13.67 C137.48,12.2 139.28,11.15 141.32,11.15 C145.13,11.15 147.77,14.03 147.77,18.74 C147.77,23.42 145.13,26.36 141.32,26.36 C139.34,26.36 137.6,25.43 136.43,23.81 L136.43,31.52 Z M145.4,18.74 C145.4,15.53 143.66,13.16 140.75,13.16 C138.98,13.16 137.21,14.21 136.43,15.47 L136.43,22.01 C137.21,23.27 138.98,24.35 140.75,24.35 C143.66,24.35 145.4,21.95 145.4,18.74 Z M152.51,9.08 C151.7,9.08 151.01,8.39 151.01,7.55 C151.01,6.71 151.7,6.05 152.51,6.05 C153.35,6.05 154.04,6.71 154.04,7.55 C154.04,8.39 153.35,9.08 152.51,9.08 Z M151.4,26 L151.4,11.51 L153.65,11.51 L153.65,26 L151.4,26 Z" fill="#FFFFFF"></path>
    </g>
</svg>
