<svg viewBox="0 0 160 43" fill="none" xmlns="http://www.w3.org/2000/svg">
<path fill-rule="evenodd" clip-rule="evenodd" d="M10.9 14.6L22.4 26.1L33.9 14.6H40.8L22.4 33L4 14.6H10.9Z" fill="white"/>
<path d="M22.4 21.5L10.9 10L33.9 10L22.4 21.5Z" fill="white"/>
<path d="M54.702 16.78C55.2153 16.78 55.6187 16.8533 55.912 17L55.538 19.156C55.2007 18.9653 54.7387 18.87 54.152 18.87C53.6827 18.87 53.2353 18.9947 52.81 19.244C52.3993 19.4933 52.0547 19.8673 51.776 20.366C51.512 20.8647 51.38 21.466 51.38 22.17V28H49.026V17H51.028L51.226 18.98C51.842 17.5133 53.0007 16.78 54.702 16.78ZM68.1014 17V28H66.0114L65.9234 26.218C65.1754 27.5527 63.8701 28.22 62.0074 28.22C60.8194 28.22 59.8587 27.8973 59.1254 27.252C58.4067 26.592 58.0474 25.5873 58.0474 24.238V17H60.4014V23.622C60.4014 24.59 60.5921 25.2793 60.9734 25.69C61.3547 26.086 61.9194 26.284 62.6674 26.284C63.5621 26.284 64.2954 26.0053 64.8674 25.448C65.4541 24.876 65.7474 24.04 65.7474 22.94V17H68.1014ZM77.6745 16.78C79.1851 16.78 80.3731 17.2933 81.2385 18.32C82.1038 19.332 82.5365 20.7327 82.5365 22.522C82.5365 24.3113 82.1038 25.712 81.2385 26.724C80.3731 27.7213 79.1851 28.22 77.6745 28.22C76.8091 28.22 76.0465 28.0147 75.3865 27.604C74.7411 27.1933 74.2571 26.6433 73.9345 25.954L73.8245 28H71.7565V12.05H74.1105V18.76C74.4478 18.144 74.9245 17.66 75.5405 17.308C76.1711 16.956 76.8825 16.78 77.6745 16.78ZM77.1465 26.328C78.0998 26.328 78.8405 25.9907 79.3685 25.316C79.9111 24.6413 80.1825 23.7027 80.1825 22.5C80.1825 21.2973 79.9111 20.366 79.3685 19.706C78.8405 19.0313 78.0998 18.694 77.1465 18.694C76.2518 18.694 75.5331 18.9947 74.9905 19.596C74.4625 20.1973 74.1691 21.026 74.1105 22.082V22.918C74.1691 23.9887 74.4625 24.8247 74.9905 25.426C75.5331 26.0273 76.2518 26.328 77.1465 26.328ZM90.2877 29.298C89.8037 30.5593 89.2537 31.4467 88.6377 31.96C88.0217 32.4733 87.215 32.73 86.2177 32.73C85.6457 32.73 85.147 32.6567 84.7217 32.51C84.311 32.378 83.9444 32.158 83.6217 31.85L84.3037 30.046C84.7437 30.574 85.345 30.838 86.1077 30.838C86.5477 30.838 86.9144 30.7207 87.2077 30.486C87.5157 30.266 87.787 29.8553 88.0217 29.254L88.5057 28.066L87.3617 25.338L83.9297 17H86.5697L88.9897 23.908L89.6277 25.976L90.3757 23.71L92.6637 17H95.1057L90.2877 29.298ZM113.337 26.46C113.659 26.46 113.931 26.4307 114.151 26.372L113.997 27.956C113.601 28.132 113.146 28.22 112.633 28.22C112.002 28.22 111.496 28.0953 111.115 27.846C110.748 27.5967 110.506 27.1787 110.389 26.592C110.051 27.1053 109.553 27.5087 108.893 27.802C108.233 28.0807 107.492 28.22 106.671 28.22C105.6 28.22 104.735 27.9707 104.075 27.472C103.415 26.9733 103.085 26.262 103.085 25.338C103.085 24.4727 103.444 23.7467 104.163 23.16C104.881 22.5587 105.952 22.1333 107.375 21.884L110.169 21.4V20.806C110.169 20.1313 109.971 19.6033 109.575 19.222C109.179 18.826 108.629 18.628 107.925 18.628C106.473 18.628 105.527 19.288 105.087 20.608L103.261 19.64C103.525 18.76 104.06 18.0633 104.867 17.55C105.688 17.0367 106.693 16.78 107.881 16.78C109.303 16.78 110.433 17.11 111.269 17.77C112.105 18.43 112.523 19.398 112.523 20.674V25.646C112.523 25.9247 112.581 26.13 112.699 26.262C112.831 26.394 113.043 26.46 113.337 26.46ZM107.177 26.438C107.969 26.438 108.665 26.2473 109.267 25.866C109.868 25.4847 110.169 24.9787 110.169 24.348V23.028L107.771 23.512C107.008 23.6587 106.443 23.864 106.077 24.128C105.71 24.392 105.527 24.744 105.527 25.184C105.527 25.5947 105.666 25.91 105.945 26.13C106.238 26.3353 106.649 26.438 107.177 26.438ZM122.298 16.78C123.808 16.78 124.996 17.286 125.862 18.298C126.727 19.2953 127.16 20.6887 127.16 22.478C127.16 24.2673 126.727 25.6753 125.862 26.702C124.996 27.714 123.808 28.22 122.298 28.22C121.506 28.22 120.794 28.044 120.164 27.692C119.548 27.34 119.071 26.856 118.734 26.24V32.62H116.38V17H118.448L118.558 19.046C118.88 18.3567 119.364 17.8067 120.01 17.396C120.67 16.9853 121.432 16.78 122.298 16.78ZM121.77 26.306C122.723 26.306 123.464 25.976 123.992 25.316C124.534 24.6413 124.806 23.7027 124.806 22.5C124.806 21.2973 124.534 20.3587 123.992 19.684C123.464 19.0093 122.723 18.672 121.77 18.672C120.875 18.672 120.156 18.9727 119.614 19.574C119.086 20.1753 118.792 21.0113 118.734 22.082V22.918C118.792 23.974 119.086 24.8027 119.614 25.404C120.156 26.0053 120.875 26.306 121.77 26.306ZM131.403 15.152C130.905 15.152 130.516 15.0273 130.237 14.778C129.959 14.514 129.819 14.1473 129.819 13.678C129.819 13.2087 129.959 12.8493 130.237 12.6C130.516 12.3507 130.905 12.226 131.403 12.226C131.902 12.226 132.283 12.3507 132.547 12.6C132.826 12.8493 132.965 13.2087 132.965 13.678C132.965 14.1473 132.826 14.514 132.547 14.778C132.283 15.0273 131.902 15.152 131.403 15.152ZM132.569 28H130.215V17H132.569V28Z" fill="white"/>
</svg>
